Coordinates
version=1
nRows=43
nColumns=12
inDegrees=yes

Units are S.I. units (second, meters, Newtons, ...)
Angles are in degrees

endheader
time	SC_y	SC_z	SC_x	AC_y	AC_z	AC_x	GH_y	GH_z	GH_yy	EL_x	PS_y
       0.0              -43.94        -0.7244          34.54          45.77          6.818         -15.51         -41.59           15.2          102.5          52.29          37.71
   0.03567              -43.93        -0.7249          34.53          45.77          6.816         -15.51         -41.61           15.2          102.5          52.29          37.72
   0.07135              -43.93        -0.7255          34.53          45.77          6.815         -15.51         -41.63           15.2          102.5          52.28          37.74
     0.107              -43.93         -0.726          34.53          45.77          6.813         -15.51         -41.65           15.2          102.5          52.28          37.75
    0.1427              -43.92        -0.7266          34.53          45.76          6.811         -15.51         -41.67           15.2          102.5          52.28          37.77
    0.1784              -43.92        -0.7272          34.53          45.76          6.809          -15.5          -41.7          15.19          102.5          52.27          37.78
     0.214              -43.91        -0.7279          34.52          45.76          6.807          -15.5         -41.72          15.19          102.5          52.27           37.8
    0.2497              -43.91        -0.7286          34.52          45.76          6.805          -15.5         -41.75          15.19          102.5          52.26          37.82
    0.2854               -43.9        -0.7294          34.52          45.76          6.802          -15.5         -41.78          15.19          102.5          52.26          37.84
    0.3211               -43.9        -0.7302          34.51          45.75            6.8         -15.49         -41.81          15.19          102.5          52.25          37.86
    0.3567              -43.89        -0.7311          34.51          45.75          6.797         -15.49         -41.85          15.19          102.5          52.25          37.88
    0.3924              -43.89         -0.732          34.51          45.75          6.794         -15.49         -41.88          15.19          102.5          52.24          37.91
    0.4281              -43.88        -0.7331           34.5          45.74           6.79         -15.48         -41.92          15.19          102.5          52.23          37.93
    0.4638              -43.87        -0.7342           34.5          45.74          6.787         -15.48         -41.97          15.18          102.5          52.23          37.96
    0.4994              -43.86        -0.7354          34.49          45.74          6.783         -15.47         -42.01          15.18          102.6          52.22          37.99
    0.5351              -43.86        -0.7367          34.49          45.73          6.779         -15.47         -42.06          15.18          102.6          52.21          38.02
    0.5708              -43.85        -0.7381          34.48          45.73          6.774         -15.46         -42.12          15.18          102.6           52.2          38.06
    0.6065              -43.84        -0.7396          34.48          45.73           6.77         -15.46         -42.18          15.18          102.6          52.19           38.1
    0.6421              -43.82        -0.7413          34.47          45.72          6.764         -15.45         -42.24          15.17          102.6          52.18          38.14
    0.6778              -43.81        -0.7431          34.46          45.72          6.758         -15.45         -42.32          15.17          102.6          52.17          38.19
    0.7135               -43.8        -0.7452          34.46          45.71          6.752         -15.44          -42.4          15.17          102.6          52.15          38.24
    0.7492              -43.78        -0.7474          34.45           45.7          6.745         -15.43         -42.48          15.16          102.7          52.14           38.3
    0.7848              -43.77        -0.7498          34.44           45.7          6.737         -15.42         -42.58          15.16          102.7          52.12          38.36
    0.8205              -43.75        -0.7526          34.43          45.69          6.728         -15.41         -42.68          15.16          102.7           52.1          38.43
    0.8562              -43.73        -0.7556          34.42          45.68          6.719          -15.4          -42.8          15.15          102.7          52.08           38.5
    0.8919               -43.7         -0.759           34.4          45.67          6.708         -15.39         -42.93          15.15          102.8          52.06          38.59
    0.9275              -43.68        -0.7627          34.39          45.66          6.696         -15.37         -43.08          15.14          102.8          52.03          38.69
    0.9632              -43.65         -0.767          34.37          45.65          6.682         -15.36         -43.25          15.13          102.8          52.01          38.79
    0.9989              -43.62        -0.7718          34.36          45.63          6.667         -15.34         -43.43          15.13          102.9          51.97          38.92
     1.035              -43.58        -0.7772          34.33          45.62           6.65         -15.32         -43.65          15.12          102.9          51.94          39.06
      1.07              -43.54        -0.7835          34.31           45.6           6.63          -15.3         -43.89          15.11          103.0           51.9          39.21
     1.106              -43.49        -0.7906          34.28          45.58          6.607         -15.27         -44.17           15.1          103.0          51.85           39.4
     1.142              -43.43        -0.7989          34.25          45.55          6.581         -15.24         -44.49          15.09          103.1          51.79          39.61
     1.177              -43.37        -0.8085          34.21          45.52           6.55          -15.2         -44.87          15.07          103.2          51.73          39.85
     1.213              -43.29        -0.8197          34.17          45.49          6.514         -15.16          -45.3          15.06          103.3          51.65          40.14
     1.249               -43.2        -0.8329          34.12          45.45          6.472         -15.11         -45.82          15.04          103.4          51.57          40.47
     1.284               -43.1        -0.8486          34.06          45.41          6.422         -15.06         -46.43          15.01          103.5          51.46          40.87
      1.32              -42.97        -0.8675          33.99          45.35          6.362         -14.99         -47.17          14.98          103.7          51.34          41.35
     1.356              -42.82        -0.8903           33.9          45.28          6.289          -14.9         -48.06          14.95          103.9          51.18          41.93
     1.391              -42.63        -0.9181          33.79           45.2          6.201          -14.8         -49.14          14.91          104.1           51.0          42.64
     1.427               -42.4        -0.9525          33.66           45.1          6.091         -14.67         -50.48          14.85          104.4          50.77          43.52
     1.463              -42.11        -0.9953           33.5          44.97          5.955         -14.51         -52.16          14.79          104.8          50.48          44.61
     1.498              -41.74         -1.049          33.29          44.82          5.783         -14.31         -54.26          14.71          105.3          50.12          45.98
